<?xml version="1.0" standalone="no"?>
<!DOCTYPE svg PUBLIC "-//W3C//DTD SVG 20010904//EN"
 "http://www.w3.org/TR/2001/REC-SVG-20010904/DTD/svg10.dtd">
<svg version="1.0" xmlns="http://www.w3.org/2000/svg"
 width="1280.000000pt" height="720.000000pt" viewBox="0 0 1280.000000 720.000000"
 preserveAspectRatio="xMidYMid meet">

<g transform="translate(0.000000,720.000000) scale(0.100000,-0.100000)"
fill="#000000" stroke="none">
<path d="M6325 5972 c-33 -8 -75 -42 -81 -67 -5 -19 -18 -28 -57 -39 -154 -45
-342 -142 -459 -235 -143 -114 -259 -281 -274 -391 -5 -40 -2 -51 30 -99 l36
-54 -27 -36 c-87 -113 -96 -139 -58 -173 15 -14 56 -38 91 -54 61 -27 77 -45
53 -60 -6 -3 -20 -27 -32 -53 -31 -68 -31 -249 0 -306 28 -52 58 -79 115 -105
45 -20 47 -22 42 -53 -3 -18 -10 -45 -15 -61 -7 -23 -6 -27 7 -22 63 24 68 21
83 -62 9 -47 3 -54 -83 -100 l-39 -21 46 -12 c35 -8 48 -17 55 -38 5 -14 26
-47 46 -73 40 -54 28 -64 -26 -21 -76 61 -128 118 -128 140 0 13 -5 23 -11 23
-6 0 -9 -7 -5 -15 3 -10 -7 -23 -32 -39 -60 -37 -248 -136 -260 -136 -6 0 -12
14 -14 32 -4 44 -50 69 -136 76 -83 5 -111 -12 -116 -73 l-4 -40 -48 -3 c-91
-6 -164 -43 -164 -83 0 -11 -6 -21 -12 -23 -7 -2 -33 -9 -58 -16 -54 -15 -117
-74 -126 -118 -7 -33 -9 -34 -240 -101 -75 -22 -100 -42 -132 -107 -40 -80
-65 -238 -43 -273 10 -16 50 4 211 108 116 75 268 154 284 148 6 -3 22 -33 35
-67 24 -63 94 -150 122 -150 8 0 32 -31 53 -68 81 -139 190 -258 333 -366 89
-66 198 -126 232 -126 28 0 155 131 256 263 44 58 83 106 86 106 3 1 12 -32
18 -72 7 -41 19 -83 27 -95 12 -18 13 -35 4 -104 -25 -203 3 -411 71 -527 33
-56 59 -133 59 -176 0 -25 9 -55 25 -80 13 -22 25 -55 25 -72 0 -29 -5 -35
-52 -59 -59 -30 -107 -65 -186 -136 -31 -28 -70 -52 -95 -59 -70 -20 -103 -70
-77 -120 10 -17 20 -18 113 -15 56 2 197 16 312 31 221 29 227 28 385 -6 32
-7 59 -7 90 2 25 6 79 13 120 14 41 2 122 10 179 17 110 16 131 27 131 74 0
23 -42 64 -65 64 -7 0 -33 27 -59 60 -26 33 -74 81 -108 106 l-60 47 4 75 c5
71 7 77 39 103 19 16 38 29 42 29 5 0 27 -16 50 -35 60 -51 76 -53 149 -12 60
32 63 36 62 70 -1 34 1 36 65 66 36 16 78 33 94 37 43 10 57 39 57 120 0 91
-5 104 -40 104 -24 0 -30 7 -49 58 -11 31 -37 79 -57 105 l-35 49 -4 136 c-2
76 -10 168 -19 207 -9 38 -16 90 -16 115 0 25 -8 61 -19 81 -12 22 -23 76 -31
144 -19 183 -51 304 -106 405 -15 28 -25 53 -21 56 3 3 50 12 104 19 140 19
176 25 287 46 54 10 111 19 127 19 16 0 37 4 47 10 9 5 69 21 132 35 135 32
277 75 375 116 77 33 114 70 171 176 57 107 78 187 79 298 0 90 -4 111 -37
208 -21 59 -49 124 -63 146 -42 63 -249 170 -330 171 -40 0 -131 -26 -260 -74
-38 -14 -73 -26 -78 -26 -14 0 -29 54 -19 71 10 16 7 212 -3 261 -4 15 -27 75
-52 135 -24 59 -59 142 -76 183 -16 41 -40 91 -53 111 -34 55 -125 130 -213
177 -153 82 -275 112 -453 112 -101 0 -124 3 -146 19 -31 21 -68 30 -97 23z
m11 -69 c-3 -4 5 -12 20 -18 25 -10 24 -10 -15 -10 -22 0 -41 0 -41 1 0 15 16
34 28 34 8 0 12 -3 8 -7z m54 -3 c8 -5 11 -10 5 -10 -5 0 -17 5 -25 10 -8 5
-10 10 -5 10 6 0 17 -5 25 -10z m131 -42 c-30 -7 -47 -6 -54 1 -8 8 4 11 44
10 l54 -1 -44 -10z m239 -2 c30 -7 71 -21 90 -30 34 -16 34 -16 5 -10 -16 3
-34 6 -40 7 -5 1 -12 5 -15 9 -9 11 -135 28 -171 23 -29 -4 -30 -3 -9 4 36 13
78 12 140 -3z m-306 -31 c-7 -16 -4 -17 66 -17 l45 0 -50 -8 c-27 -4 -54 -3
-59 1 -6 5 -17 9 -25 9 -14 0 -14 -1 -1 -10 13 -8 12 -10 -2 -10 -25 0 -22 14
5 33 28 20 28 20 21 2z m79 -2 c-13 -2 -33 -2 -45 0 -13 2 -3 4 22 4 25 0 35
-2 23 -4z m205 0 c-10 -2 -28 -2 -40 0 -13 2 -5 4 17 4 22 1 32 -1 23 -4z
m-498 -13 c-8 -5 -33 -12 -55 -16 -33 -6 -36 -8 -20 -15 11 -4 16 -8 10 -9 -5
0 -27 -4 -47 -9 -22 -5 -38 -5 -38 0 0 5 15 10 33 10 22 1 26 3 12 7 -15 4 -6
10 35 23 65 20 94 24 70 9z m98 -11 c17 1 32 -3 32 -9 0 -6 -11 -8 -27 -4 -23
4 -25 3 -13 -6 13 -10 13 -11 -1 -7 -9 3 -21 1 -27 -5 -7 -7 -17 -6 -32 5 -12
8 -31 13 -43 11 -21 -4 -21 -4 -2 5 11 5 27 5 37 0 9 -5 25 -9 35 -9 12 1 9 5
-12 15 -24 12 -25 14 -5 8 14 -3 40 -5 58 -4z m497 1 c8 -13 -5 -13 -25 0 -13
8 -13 10 2 10 9 0 20 -4 23 -10z m111 -6 c66 -27 241 -151 180 -128 -9 3 -16
11 -16 16 0 6 -7 7 -16 4 -8 -3 -12 -2 -9 4 3 6 -3 10 -15 10 -12 0 -19 4 -15
9 3 5 -5 13 -17 17 -13 4 -28 14 -34 23 -7 8 -28 16 -48 17 -20 0 -42 6 -48
12 -8 8 -4 9 13 6 21 -5 22 -4 6 6 -9 6 -27 8 -40 5 -17 -5 -19 -4 -7 4 20 14
21 14 66 -5z m-198 -1 c-10 -2 -26 -2 -35 0 -10 3 -2 5 17 5 19 0 27 -2 18 -5z
m117 -25 c7 -7 -2 -8 -25 -3 -52 11 -72 25 -25 18 22 -3 45 -10 50 -15z m-797
-12 c-24 -18 -23 -29 2 -21 13 4 20 2 20 -6 0 -7 -3 -9 -6 -6 -4 4 -19 -1 -35
-10 -25 -15 -26 -18 -12 -29 15 -10 15 -12 -5 -18 -12 -4 -31 -1 -44 7 -13 8
-33 14 -45 13 -25 -2 -44 -16 -23 -16 7 0 11 -2 8 -5 -3 -3 -13 -3 -22 1 -15
6 -15 7 1 19 9 7 24 10 32 7 8 -3 12 -1 8 5 -4 5 5 15 19 22 14 6 23 7 19 2
-11 -18 15 -22 42 -6 l28 16 -27 -4 c-37 -6 -35 -1 10 22 43 23 54 26 30 7z
m187 4 c3 -5 1 -10 -4 -10 -6 0 -11 5 -11 10 0 6 2 10 4 10 3 0 8 -4 11 -10z
m-45 -14 c0 -2 -15 -9 -32 -15 -30 -10 -31 -9 -14 4 18 14 46 20 46 11z m776
-9 c11 -11 -19 -8 -36 3 -12 8 -10 9 7 7 12 -2 26 -6 29 -10z m-906 -37 c0 -5
-8 -10 -17 -10 -15 0 -16 2 -3 10 19 12 20 12 20 0z m-203 -47 c-9 -2 -14 -9
-10 -15 4 -7 0 -9 -10 -5 -9 3 -19 2 -22 -3 -4 -6 -1 -10 5 -10 7 0 5 -6 -4
-15 -17 -17 -30 -20 -21 -5 3 6 2 10 -2 10 -5 0 -14 -9 -21 -20 -7 -11 -18
-20 -25 -20 -6 0 -41 -29 -76 -65 -55 -55 -62 -67 -51 -80 7 -9 20 -13 28 -10
12 4 12 3 3 -9 -11 -13 -15 -13 -32 2 -10 9 -19 21 -19 28 0 14 153 162 205
197 22 15 46 26 55 26 11 -1 10 -3 -3 -6z m28 -54 c-16 -4 -24 -7 -16 -8 8 0
12 -3 9 -6 -3 -3 -13 -2 -23 1 -17 7 -17 8 -1 20 9 6 27 9 39 6 20 -6 19 -7
-8 -13z m-35 -27 c0 -4 -10 -13 -22 -21 -23 -14 -23 -14 -4 8 20 22 26 25 26
13z m-75 -22 c-3 -5 -16 -10 -28 -9 -20 1 -20 2 3 9 14 4 26 8 28 9 2 1 0 -3
-3 -9z m-40 -30 c3 -5 11 -10 16 -10 6 0 7 5 4 10 -7 11 8 14 18 4 3 -4 -5
-16 -19 -27 -24 -18 -27 -18 -42 -3 -9 9 -11 16 -5 16 6 0 13 -6 16 -12 2 -7
8 -9 13 -5 5 5 1 15 -10 23 -11 8 -15 14 -9 14 7 0 15 -4 18 -10z m-18 -56
c-3 -3 -12 -4 -19 -1 -8 3 -5 6 6 6 11 1 17 -2 13 -5z m-62 -23 c-8 -14 -25
-14 -25 0 0 5 5 7 10 4 6 -3 10 -1 10 6 0 7 3 10 6 6 3 -3 3 -10 -1 -16z m35
5 c0 -3 -4 -8 -10 -11 -5 -3 -10 -1 -10 4 0 6 5 11 10 11 6 0 10 -2 10 -4z
m-107 -41 c-3 -9 -8 -14 -10 -11 -3 3 -2 9 2 15 9 16 15 13 8 -4z m32 -15 c3
-5 2 -10 -4 -10 -5 0 -13 5 -16 10 -3 6 -2 10 4 10 5 0 13 -4 16 -10z m-65
-36 c-14 -37 -12 -52 5 -30 8 11 15 15 15 8 0 -6 -8 -17 -18 -24 -10 -7 -28
-29 -41 -48 -12 -19 -20 -26 -16 -15 4 11 8 25 8 32 0 7 5 9 10 6 6 -4 8 1 4
11 -4 11 -3 15 4 11 6 -4 9 -1 8 6 -2 15 18 69 26 69 2 0 0 -12 -5 -26z m40 4
c0 6 5 12 11 12 8 0 8 -5 -1 -15 -13 -16 -30 -11 -30 8 0 7 4 6 10 -3 6 -10
10 -11 10 -2z m2177 -445 c-5 -13 -12 -21 -14 -19 -2 2 -14 -6 -27 -19 -12
-12 -47 -30 -77 -40 -30 -9 -72 -27 -94 -40 -50 -27 -75 -37 -75 -27 0 4 12
15 28 24 15 9 51 39 79 67 59 57 117 80 151 62 17 -9 21 -9 16 2 -3 8 2 14 10
14 11 0 12 -5 3 -24z m-377 -57 c0 -113 -120 -252 -260 -301 l-40 -14 -26 45
c-15 25 -24 48 -21 51 4 3 26 0 51 -6 73 -18 83 -14 40 17 -53 38 -125 122
-122 140 2 8 24 33 51 55 45 38 54 42 175 62 145 25 152 23 152 -49z m403 20
c-12 -17 -47 -34 -112 -56 -96 -31 -140 -37 -54 -6 84 29 151 68 164 95 10 21
13 23 16 9 3 -10 -4 -28 -14 -42z m58 10 c-10 -10 -24 -17 -31 -14 -10 3 -9 8
2 19 8 8 13 20 10 27 -3 11 -1 11 17 0 20 -12 20 -13 2 -32z m-281 -32 c-7 -8
-35 -29 -61 -46 -34 -22 -48 -36 -44 -48 4 -12 -5 -19 -34 -26 l-39 -11 66 74
c38 42 72 71 80 68 7 -3 10 -1 7 4 -3 5 3 11 12 13 23 5 29 -8 13 -28z m-109
-32 c-17 -22 -37 -44 -45 -51 -13 -11 -14 -8 -6 20 5 17 11 33 12 34 67 47 78
46 39 -3z m-608 -10 c26 -28 47 -88 47 -131 0 -43 -26 -121 -41 -121 -5 0 -29
20 -53 45 -55 54 -103 85 -134 85 -14 0 -61 -28 -108 -63 -158 -119 -302 -187
-430 -203 -47 -5 -55 -4 -48 7 4 8 -15 -3 -43 -24 -90 -66 -157 -91 -258 -95
-106 -5 -149 9 -188 59 -30 41 -57 127 -57 185 0 96 45 211 81 208 8 -1 59
-18 114 -38 139 -49 283 -85 395 -98 173 -20 326 21 527 143 108 64 164 76
196 41z m-84 -208 l66 -67 -63 57 c-40 36 -72 56 -88 56 -13 0 -66 -29 -120
-65 -86 -59 -242 -145 -261 -145 -5 0 34 22 84 49 102 54 131 74 211 138 74
59 90 57 171 -23z m-209 -304 c-58 -85 -103 -116 -250 -171 -68 -26 -71 -28
-30 -22 25 3 68 12 95 19 l50 12 -40 -35 c-52 -45 -145 -96 -221 -122 -86 -28
-225 -44 -304 -34 l-65 8 -3 45 -3 45 43 -3 c24 -2 61 1 83 6 38 10 37 10 -30
11 -38 1 -76 5 -83 9 -10 7 -45 114 -39 118 1 0 97 -3 212 -7 187 -6 218 -5
283 12 76 19 225 91 289 139 21 16 42 29 46 29 4 1 -10 -26 -33 -59z m356 -52
c4 -35 3 -50 -3 -43 -6 6 -13 39 -16 75 -7 77 8 50 19 -32z m-956 -34 c0 -2
-37 -4 -81 -4 l-82 0 34 33 34 33 47 -29 c27 -17 48 -32 48 -33z m550 -40 c0
-18 -95 -141 -160 -205 -56 -55 -97 -86 -151 -112 -80 -39 -149 -57 -149 -38
0 6 4 11 10 11 5 0 36 32 70 71 51 59 75 78 149 114 55 28 111 66 152 104 59
56 79 69 79 55z m354 -72 c-4 -34 -11 -62 -17 -62 -6 0 -7 13 -3 33 4 17 10
47 13 65 9 53 14 30 7 -36z m-1104 -112 c0 -15 -7 -20 -27 -20 l-28 0 25 20
c31 24 30 24 30 0z m1017 -64 c-14 -30 -43 -81 -65 -113 -45 -65 -177 -199
-166 -168 4 11 39 51 77 90 77 79 142 171 159 229 7 21 14 34 16 28 2 -7 -8
-36 -21 -66z m-1537 -39 c47 -16 64 -53 55 -122 -3 -31 -12 -56 -20 -59 -23
-9 -177 -28 -182 -22 -3 3 -8 46 -11 95 -3 65 -1 95 8 106 15 18 99 19 150 2z
m280 -32 c-10 -12 -96 -65 -106 -65 -2 0 -4 6 -4 13 0 6 26 24 58 39 69 32 67
31 52 13z m-467 -72 c3 -5 8 -29 11 -55 l7 -48 -40 0 c-37 0 -41 -2 -41 -26 0
-53 33 -139 66 -172 l33 -33 -32 -19 c-18 -11 -50 -20 -73 -20 -41 0 -42 1
-68 60 -28 63 -56 173 -56 226 0 18 8 38 19 48 35 32 162 60 174 39z m1717
-23 c65 -46 132 -179 169 -337 15 -67 51 -282 51 -310 0 -2 4 -2 9 1 11 7 22
-56 11 -67 -4 -5 -1 -33 6 -63 29 -109 38 -374 13 -358 -17 10 -8 -5 31 -52
42 -50 130 -213 131 -243 0 -11 3 -9 9 7 24 59 58 -1 45 -81 -11 -69 -14 -75
-47 -83 -18 -3 -62 -19 -99 -34 -59 -24 -67 -25 -77 -11 -6 9 -4 -5 4 -32 9
-26 14 -53 11 -61 -3 -7 -35 -26 -71 -41 l-66 -28 -57 50 c-32 27 -71 58 -88
68 l-30 19 20 -23 20 -23 -38 -33 c-62 -54 -74 -52 -134 13 -29 31 -53 66 -53
78 0 11 16 47 36 80 32 53 35 63 28 104 -4 25 -8 194 -10 375 -2 298 -5 337
-23 399 -23 77 -41 258 -35 356 3 50 2 60 -6 42 -5 -13 -15 -20 -21 -16 -7 4
-7 -1 1 -16 7 -12 10 -43 7 -69 -8 -81 12 -268 36 -334 16 -46 21 -79 19 -124
-4 -73 -9 -75 -96 -43 -175 66 -372 271 -465 484 -12 27 -19 51 -17 53 2 3 25
-12 51 -31 25 -20 50 -36 54 -36 5 0 11 18 15 41 10 61 83 199 106 199 10 0
-28 -119 -54 -169 l-17 -33 23 7 c52 16 173 101 255 180 48 46 89 82 91 80 5
-5 -17 -49 -44 -90 l-19 -29 35 19 c19 11 82 68 140 127 58 59 107 107 108
107 2 1 17 -8 32 -19z m-1377 -125 c10 -33 21 -91 24 -128 l6 -68 -59 -57
c-32 -32 -83 -73 -111 -91 -56 -36 -63 -48 -20 -32 25 10 29 6 88 -80 64 -94
160 -198 201 -220 22 -12 23 -11 6 8 -10 11 -18 25 -18 31 0 6 8 13 18 15 9 3
2 5 -15 6 -21 1 -33 6 -33 15 0 8 35 61 78 118 43 56 115 161 161 231 47 70
89 126 95 124 7 -2 13 -91 16 -268 7 -304 19 -259 -111 -419 -117 -146 -201
-230 -227 -230 -99 0 -399 259 -512 442 -48 79 -50 83 -29 86 17 3 9 8 -29 21
-66 23 -87 42 -123 113 -34 67 -35 78 -11 78 9 0 42 12 72 26 42 20 66 25 102
21 26 -2 45 -1 43 3 -4 7 38 30 55 30 4 0 6 -10 3 -22 -2 -13 8 -1 24 26 24
43 36 52 88 71 58 21 60 21 90 3 43 -26 55 -22 20 6 -27 22 -28 26 -15 38 9 7
23 22 30 33 12 14 7 13 -20 -7 -19 -14 -45 -31 -57 -37 -36 -18 -133 -40 -150
-34 -21 8 -63 100 -63 139 l0 32 100 7 c55 4 124 13 153 20 28 7 65 13 82 12
27 -2 31 -7 48 -62z m1077 13 c-53 -45 -192 -153 -222 -173 -16 -9 -28 -13
-28 -7 0 6 39 38 88 71 48 33 110 80 137 105 28 24 52 42 55 39 3 -3 -11 -18
-30 -35z m-1629 -25 c6 -32 24 -92 40 -133 16 -41 29 -78 29 -83 0 -16 -109
-58 -142 -55 -28 3 -36 10 -62 60 -37 74 -44 142 -18 184 17 26 108 84 133 84
4 0 13 -26 20 -57z m1350 -31 c-17 -21 -47 -67 -66 -102 -20 -36 -33 -54 -29
-40 9 35 32 79 63 120 39 52 45 59 54 60 4 0 -6 -17 -22 -38z m-427 -9 c30
-43 37 -27 -97 -228 -114 -171 -205 -295 -217 -295 -16 0 -160 207 -160 230 0
3 34 34 76 69 l76 63 -4 71 c-2 43 1 72 8 74 28 9 242 51 266 52 21 1 33 -8
52 -36z m63 -25 c-2 -13 -4 -3 -4 22 0 25 2 35 4 23 2 -13 2 -33 0 -45z m63
-29 c0 -5 -4 -9 -10 -9 -5 0 -10 7 -10 16 0 8 5 12 10 9 6 -3 10 -10 10 -16z
m-1460 -113 c0 -2 -20 -11 -45 -20 -25 -8 -43 -11 -40 -6 8 13 85 36 85 26z
m1568 -111 c-3 -3 -9 2 -12 12 -6 14 -5 15 5 6 7 -7 10 -15 7 -18z m273 -708
c-10 -9 -11 -8 -5 6 3 10 9 15 12 12 3 -3 0 -11 -7 -18z m-274 -133 c-3 -3
-12 -4 -19 -1 -8 3 -5 6 6 6 11 1 17 -2 13 -5z m17 -136 c-3 -4 -11 -5 -19 -1
-21 7 -19 12 4 10 11 0 18 -5 15 -9z m27 -96 c9 -20 35 -63 59 -94 l43 -58 64
57 c77 67 82 65 85 -57 4 -168 3 -196 -5 -265 -13 -100 -11 -134 7 -154 11
-13 16 -37 16 -87 l0 -70 -251 -36 c-267 -38 -292 -38 -308 4 -16 42 1 62 60
71 45 6 61 14 94 49 l40 41 -51 -36 c-52 -37 -74 -45 -74 -28 0 15 148 127
213 162 62 33 63 35 51 122 -4 26 -10 44 -15 42 -13 -9 -23 18 -25 65 0 25
-13 78 -28 118 -14 41 -26 86 -26 101 0 32 19 91 28 91 4 0 14 -17 23 -38z
m349 11 c0 -16 -7 -49 -15 -75 -8 -27 -12 -48 -9 -48 17 0 98 66 119 98 l26
37 -2 -81 c-3 -68 0 -85 18 -110 31 -44 110 -114 128 -114 16 0 18 -7 15 -58
-4 -69 8 -90 83 -146 40 -30 87 -75 106 -100 21 -27 47 -50 67 -56 29 -10 44
-27 44 -50 0 -16 -31 -40 -51 -40 -15 0 -19 6 -17 28 1 15 -1 33 -5 39 -10 16
-77 54 -77 44 0 -5 16 -18 35 -30 42 -24 46 -54 10 -77 -35 -23 -59 -15 -62
20 -2 32 -14 44 -55 52 -17 4 -28 14 -31 28 -4 17 -5 16 -6 -6 -1 -22 4 -27
37 -35 44 -10 54 -41 23 -72 -21 -21 -64 -27 -108 -15 -18 5 -20 10 -13 34 12
43 -8 72 -65 92 -39 14 -46 15 -31 3 11 -8 24 -15 30 -15 19 0 46 -34 46 -59
0 -50 -34 -71 -114 -71 -70 0 -85 6 -103 44 -9 21 -13 23 -9 9 3 -17 -1 -23
-14 -23 -33 0 -45 29 -46 117 -1 54 -6 89 -14 96 -10 9 -12 8 -7 -5 4 -10 3
-18 -1 -18 -4 0 -8 96 -7 213 0 116 -3 237 -7 268 l-8 56 37 26 c47 34 53 34
53 0z m-670 -740 c0 -10 3 -29 7 -41 5 -21 3 -23 -18 -20 -27 3 -38 40 -19 64
17 19 30 18 30 -3z"/>
<path d="M6948 5773 c7 -3 16 -2 19 1 4 3 -2 6 -13 5 -11 0 -14 -3 -6 -6z"/>
<path d="M5980 5690 c23 -18 50 -26 50 -16 0 5 -60 36 -69 36 -3 0 5 -9 19
-20z"/>
<path d="M7670 4900 c-8 -5 -12 -12 -9 -15 4 -3 12 1 19 10 14 17 11 19 -10 5z"/>
<path d="M7269 4866 c-55 -20 -106 -54 -131 -88 l-22 -31 32 23 c26 20 37 22
60 14 30 -11 41 -49 22 -84 -6 -11 -8 -20 -6 -20 10 0 36 59 36 79 0 12 -9 26
-20 33 -29 18 -25 33 14 52 40 19 77 21 94 4 7 -7 12 -9 12 -6 0 11 -31 38
-43 38 -7 -1 -28 -7 -48 -14z"/>
</g>
</svg>
